<svg height="442pt" viewBox="-53 0 442 442" width="442pt" xmlns="http://www.w3.org/2000/svg"><path d="m303.210938 263.269531c1.539062-.003906 2.78125-1.257812 2.777343-2.796875-.003906-1.539062-1.253906-2.785156-2.792969-2.78125-1.539062 0-2.785156 1.25-2.785156 2.789063 0 .742187.296875 1.453125.820313 1.976562.527343.523438 1.238281.816407 1.980469.8125zm-28.609376 0c1.539063 0 2.789063-1.25 2.789063-2.789062 0-1.542969-1.25-2.789063-2.789063-2.789063-1.542968 0-2.792968 1.246094-2.792968 2.789063.003906 1.539062 1.25 2.789062 2.792968 2.789062zm-28.601562 0c1.539062 0 2.789062-1.25 2.789062-2.789062 0-1.542969-1.25-2.789063-2.789062-2.789063s-2.789062 1.246094-2.789062 2.789063c0 1.539062 1.25 2.789062 2.789062 2.789062zm-28.601562 0c1.542968-.003906 2.785156-1.257812 2.78125-2.796875-.003907-1.539062-1.253907-2.785156-2.792969-2.78125-1.539063 0-2.785157 1.25-2.785157 2.789063 0 .742187.292969 1.453125.820313 1.976562.523437.523438 1.238281.816407 1.976563.8125zm-28.609376 0c1.542969 0 2.789063-1.25 2.789063-2.789062 0-1.542969-1.246094-2.789063-2.789063-2.789063-1.539062 0-2.789062 1.246094-2.789062 2.789063 0 1.539062 1.25 2.789062 2.789062 2.789062zm57.210938 61.609375h-64c-11.046875.003906-20.003906-8.953125-20-20v-88.800781c-.003906-11.046875 8.953125-20 20-20h128c11.046875 0 20.003906 8.953125 20 20v88.800781c.003906 11.046875-8.953125 20.003906-20 20zm0 0" fill="#f8ec7d"/><path d="m302 196.078125h-112v-45.359375c0-18.554688 15.042969-33.597656 33.601562-33.597656h44.796876c18.558593 0 33.601562 15.042968 33.601562 33.597656zm0 0" fill="#6fe3ff"/><path d="m6 66v-20c0-22.089844 17.910156-40 40-40h160c22.089844 0 40 17.910156 40 40v71.121094h-22.398438c-18.558593 0-33.601562 15.042968-33.601562 33.597656v45.359375h-8c-11.046875 0-20.003906 8.953125-20 20v88.800781c-.003906 11.046875 8.953125 20.003906 20 20h64v39.121094h-240zm0 0" fill="#e48e66"/><path d="m126 415c8.285156 0 15-6.714844 15-15s-6.714844-15-15-15-15 6.714844-15 15c.003906 8.28125 6.71875 14.996094 15 15zm120-51v32c0 22.089844-17.910156 40-40 40h-160c-22.089844 0-40-17.910156-40-40v-32zm0 0" fill="#e2d574"/><g fill="#63316d"><path d="m206 0h-160c-25.394531.0273438-45.9726562 20.605469-46 46v350c.0273438 25.394531 20.605469 45.972656 46 46h160c25.394531-.027344 45.972656-20.605469 46-46v-65.121094h58c14.351562-.015625 25.984375-11.644531 26-26v-88.800781c-.015625-14.351563-11.648438-25.980469-26-26h-2v-39.359375c-.023438-21.859375-17.738281-39.574219-39.601562-39.597656h-16.398438v-65.121094c-.027344-25.394531-20.605469-45.9726562-46-46zm0 430h-160c-18.769531-.019531-33.980469-15.230469-34-34v-26h228v26c-.019531 18.769531-15.230469 33.980469-34 34zm34-72h-228v-286h163c3.3125 0 6-2.6875 6-6s-2.6875-6-6-6h-163v-14c.019531-18.769531 15.230469-33.980469 34-34h160c18.769531.019531 33.980469 15.230469 34 34v14h-14c-3.3125 0-6 2.6875-6 6s2.6875 6 6 6h14v39.121094h-16.398438c-21.863281.023437-39.578124 17.738281-39.601562 39.597656v39.359375h-2c-14.351562.019531-25.984375 11.648437-26 26v88.800781c.015625 14.355469 11.648438 25.984375 26 26h58zm84-141.921875v88.800781c-.007812 7.730469-6.269531 13.992188-14 14h-128c-7.730469-.007812-13.992188-6.269531-14-14v-88.800781c.007812-7.726563 6.269531-13.988281 14-14h128c7.730469.011719 13.992188 6.273437 14 14zm-28-65.359375v39.359375h-100v-39.359375c.015625-15.234375 12.363281-27.582031 27.601562-27.597656h44.796876c15.238281.015625 27.585937 12.363281 27.601562 27.597656zm0 0"/><path d="m194.691406 72h11.117188c3.316406 0 6-2.6875 6-6s-2.683594-6-6-6h-11.117188c-3.316406 0-6 2.6875-6 6s2.683594 6 6 6zm0 0"/><path d="m126 379c-11.597656 0-21 9.402344-21 21s9.402344 21 21 21 21-9.402344 21-21c-.011719-11.59375-9.40625-20.988281-21-21zm0 30c-4.96875 0-9-4.03125-9-9s4.03125-9 9-9 9 4.03125 9 9c-.003906 4.96875-4.03125 8.996094-9 9zm0 0"/><path d="m217.398438 269.269531c4.855468-.003906 8.785156-3.941406 8.78125-8.796875-.003907-4.851562-3.941407-8.785156-8.792969-8.78125-4.851563 0-8.785157 3.933594-8.785157 8.789063.003907 4.855469 3.941407 8.789062 8.796876 8.789062zm0-12c1.773437 0 3.210937 1.4375 3.210937 3.210938 0 1.773437-1.4375 3.210937-3.210937 3.210937-1.769532 0-3.207032-1.4375-3.207032-3.210937-.003906-1.773438 1.433594-3.210938 3.207032-3.210938zm0 0"/><path d="m274.601562 269.269531c4.851563 0 8.789063-3.933593 8.789063-8.789062s-3.9375-8.789063-8.789063-8.789063c-4.855468 0-8.792968 3.933594-8.792968 8.789063.007812 4.851562 3.941406 8.78125 8.792968 8.789062zm0-12c1.296876-.003906 2.472657.777344 2.972657 1.976563.5 1.199218.226562 2.578125-.691407 3.5-.917968.921875-2.296874 1.195312-3.5.699218-1.199218-.496093-1.984374-1.667968-1.984374-2.964843.003906-1.769531 1.433593-3.203125 3.203124-3.210938zm0 0"/><path d="m188.789062 269.269531c4.855469 0 8.789063-3.933593 8.789063-8.789062s-3.933594-8.789063-8.789063-8.789063c-4.855468 0-8.789062 3.933594-8.789062 8.789063.003906 4.851562 3.9375 8.785156 8.789062 8.789062zm0-12c1.300782-.003906 2.472657.777344 2.972657 1.976563.5 1.199218.230469 2.578125-.6875 3.5s-2.300781 1.195312-3.5.699218c-1.199219-.496093-1.984375-1.667968-1.984375-2.964843.003906-1.769531 1.433594-3.203125 3.199218-3.210938zm0 0"/><path d="m303.210938 269.269531c4.851562-.003906 8.78125-3.941406 8.777343-8.796875-.003906-4.851562-3.9375-8.785156-8.792969-8.78125-4.851562 0-8.785156 3.933594-8.785156 8.789063.003906 4.855469 3.945313 8.789062 8.800782 8.789062zm0-12c1.773437 0 3.210937 1.4375 3.210937 3.210938 0 1.773437-1.4375 3.210937-3.210937 3.210937-1.773438 0-3.210938-1.4375-3.210938-3.210937 0-.851563.335938-1.667969.941406-2.269531.601563-.601563 1.417969-.941407 2.269532-.941407zm0 0"/><path d="m246 269.269531c4.855469 0 8.789062-3.933593 8.789062-8.789062s-3.933593-8.789063-8.789062-8.789063-8.789062 3.933594-8.789062 8.789063c.003906 4.851562 3.9375 8.785156 8.789062 8.789062zm0-12c1.773438 0 3.210938 1.4375 3.210938 3.210938 0 1.773437-1.4375 3.210937-3.210938 3.210937s-3.210938-1.4375-3.210938-3.210937c.003907-1.773438 1.4375-3.207031 3.210938-3.210938zm0 0"/></g></svg>