<svg id="Layer_1" data-name="Layer 1" xmlns="http://www.w3.org/2000/svg" viewBox="0 0 20 24"><defs><style>.cls-1{fill:#f89521;}.cls-2{fill:#495057;}</style></defs><title>ico-shield-orange</title><path class="cls-1" d="M19.75,4l-.34-.09A23.11,23.11,0,0,1,13.78,1.8,13.2,13.2,0,0,0,10.44.24H9.75A3.58,3.58,0,0,0,9.19.4C8.58.68,8,1,7.37,1.28a24.1,24.1,0,0,1-6,2.49L.35,4c0,.71,0,1.41,0,2.09a25.93,25.93,0,0,0,.68,4.73A21.21,21.21,0,0,0,5.3,19.67a16.44,16.44,0,0,0,4.63,4,.3.3,0,0,0,.35,0,16.21,16.21,0,0,0,3.38-2.76A21.69,21.69,0,0,0,19.23,10.2,24.77,24.77,0,0,0,19.78,6c0-.53,0-1.41,0-1.95Z"/><path class="cls-2" d="M10.37.08a13.64,13.64,0,0,1,3.42,1.59,23.7,23.7,0,0,0,5.78,2.15l.34.09.05,0c0,.55,0,1.43,0,2a25.47,25.47,0,0,1-.56,4.28,22,22,0,0,1-5.71,10.85,16.7,16.7,0,0,1-3.47,2.81.33.33,0,0,1-.36,0A16.83,16.83,0,0,1,5.1,19.82a21.45,21.45,0,0,1-4.33-9,25.85,25.85,0,0,1-.7-4.8c0-.69,0-1.4,0-2.12l1.06-.27A24.79,24.79,0,0,0,7.22,1.14C7.83.8,8.46.53,9.09.24A3.7,3.7,0,0,1,9.66.08Zm-9,9.29a21.2,21.2,0,0,0,2.22,6.56,17.93,17.93,0,0,0,6.11,6.78.44.44,0,0,0,.56,0,18.57,18.57,0,0,0,4.08-3.84A21.09,21.09,0,0,0,18.26,11a26.18,26.18,0,0,0,.81-6c0-.23-.05-.31-.26-.37a21.19,21.19,0,0,1-4.14-1.45C13.59,2.63,12.53,2,11.45,1.49a5.19,5.19,0,0,0-1.2-.42,2.5,2.5,0,0,0-1.65.41c-1,.51-2,1-2.95,1.54A21.87,21.87,0,0,1,1.16,4.63c-.16,0-.22.1-.2.28S1.19,8.18,1.39,9.37Z"/></svg>