<?xml version="1.0" standalone="no"?>
<!DOCTYPE svg PUBLIC "-//W3C//DTD SVG 1.1//EN" "http://www.w3.org/Graphics/SVG/1.1/DTD/svg11.dtd" >
<svg xmlns="http://www.w3.org/2000/svg" xmlns:xlink="http://www.w3.org/1999/xlink" version="1.1" viewBox="-30 -210 2570 2248">
  <g transform="matrix(1 0 0 -1 0 1638)">
   <path fill="currentColor"
d="M2206 1090q-2 132 -47 243.5t-139 205.5q-186 186 -449 186q-88 0 -166.5 -21.5t-151.5 -63.5q-145 -83 -231 -232q-43 -73 -63.5 -152.5t-21.5 -165.5q-1 -85 21.5 -165t64 -150t100.5 -129t129.5 -101t151.5 -65t167 -23t167 23t151.5 64.5t129.5 99.5t100.5 128.5
t64.5 151t22 166.5zM649 446q52 0 100 -26l185 185q-166 217 -166 488q0 216 110 404q109 186 293 291q181 105 400 105q78 0 154 -14.5t148.5 -43.5t139.5 -73t126 -104q119 -120 176 -260.5t59 -307.5q2 -110 -25.5 -210t-82.5 -193q-108 -184 -292 -292
q-185 -106 -401 -106q-274 0 -489 164l-186 -185q15 -26 22 -52t7 -49q0 -45 -26 -71l-424 -424q-26 -26 -71 -26q-95 0 -187 93q-94 93 -94 186q0 43 26 71l425 424q25 26 73 26z" />
  </g>

</svg>
